<?xml version="1.0" encoding="UTF-8"?>
<svg xmlns="http://www.w3.org/2000/svg" version="1.1" viewBox="0 0 16 16">
  <defs>
    <style>
      .cls-1 {
        fill: #fff;
      }
    </style>
  </defs>
  <!-- Generator: Adobe Illustrator 28.7.3, SVG Export Plug-In . SVG Version: 1.2.0 Build 164)  -->
  <g>
    <g id="Layer_1">
      <path class="cls-1" d="M6.5,1c.7-1.2,2.4-1.2,3.1,0l6.1,11.4c.5.9.1,1.9-.7,2.4-.3.1-.5.2-.8.2H1.9c-1,0-1.7-.8-1.7-1.8,0-.3,0-.6.2-.8L6.5,1ZM8.2,1.8c0-.1-.2-.2-.3-.1,0,0,0,0-.1.1L1.7,13.1c0,.1,0,.3.1.3,0,0,0,0,.1,0h12.2c.1,0,.2-.1.2-.3,0,0,0,0,0-.1L8.2,1.8ZM8.7,5.8v2.5c0,.4-.3.8-.8.8s-.8-.3-.8-.8v-2.5c0-.4.3-.8.8-.8s.8.3.8.8ZM9,11c0,.6-.4,1-1,1s-1-.4-1-1,.4-1,1-1,1,.4,1,1Z"/>
    </g>
  </g>
</svg>