<?xml version="1.0" encoding="UTF-8"?>
<svg xmlns="http://www.w3.org/2000/svg" version="1.1" viewBox="0 0 16 16">
  <defs>
    <style>
      .cls-1 {
        fill: #fff;
      }
    </style>
  </defs>
  <!-- Generator: Adobe Illustrator 28.7.3, SVG Export Plug-In . SVG Version: 1.2.0 Build 164)  -->
  <g>
    <g id="Layer_1">
      <path class="cls-1" d="M8,9.5c.8,0,1.5-.7,1.5-1.5s-.7-1.5-1.5-1.5-1.5.7-1.5,1.5.7,1.5,1.5,1.5Z"/>
      <path class="cls-1" d="M8,0c4.4,0,8,3.6,8,8s-3.6,8-8,8S0,12.4,0,8,3.6,0,8,0ZM1.5,8c0,3.6,2.9,6.5,6.5,6.5s6.5-2.9,6.5-6.5S11.6,1.5,8,1.5,1.5,4.4,1.5,8Z"/>
    </g>
  </g>
</svg>