<?xml version="1.0" encoding="UTF-8"?>
<svg xmlns="http://www.w3.org/2000/svg" version="1.1" viewBox="0 0 24 24">
  <defs>
    <style>
      .cls-1 {
        fill: #fff;
      }
    </style>
  </defs>
  <!-- Generator: Adobe Illustrator 28.7.3, SVG Export Plug-In . SVG Version: 1.2.0 Build 164)  -->
  <g>
    <g id="Layer_1">
      <path class="cls-1" d="M12,2c3.9,0,7,3.1,7,7s-1.2,4.5-3,5.7v2.3c0,.6-.4,1-1,1h-6c-.6,0-1-.4-1-1v-2.3c-1.8-1.3-3-3.4-3-5.7,0-3.9,3.1-7,7-7M9,21v-1h6v1c0,.6-.4,1-1,1h-4c-.6,0-1-.4-1-1M12,4c-2.8,0-5,2.2-5,5s1.2,3.8,3,4.6v2.4h4v-2.4c1.8-.8,3-2.5,3-4.6s-2.2-5-5-5Z"/>
    </g>
  </g>
</svg>