<?xml version="1.0" encoding="UTF-8"?>
<svg xmlns="http://www.w3.org/2000/svg" version="1.1" viewBox="0 0 20 20">
  <defs>
    <style>
      .cls-1 {
        fill: #fff;
      }

      .cls-2 {
        fill: #ff7500;
      }
    </style>
  </defs>
  <!-- Generator: Adobe Illustrator 28.7.3, SVG Export Plug-In . SVG Version: 1.2.0 Build 164)  -->
  <g>
    <g id="Layer_1">
      <circle class="cls-2" cx="10" cy="10" r="10"/>
    </g>
    <g id="Layer_2">
      <path class="cls-1" d="M8.6,3.4c.6-1.1,2.2-1.1,2.8,0l5.4,10.2c.4.8.1,1.7-.6,2.1-.2.1-.5.2-.7.2H4.6c-.9,0-1.6-.7-1.6-1.6,0-.3,0-.5.2-.7L8.6,3.4ZM10.2,4.1c0-.1-.2-.1-.3,0,0,0,0,0,0,0l-5.4,10.2c0,.1,0,.2,0,.3,0,0,0,0,.1,0h10.9c.1,0,.2-.1.2-.2,0,0,0,0,0-.1l-5.4-10.2ZM10.7,7.7v2.2c0,.4-.3.7-.7.7s-.7-.3-.7-.7v-2.2c0-.4.3-.7.7-.7s.7.3.7.7ZM10.9,12.3c0,.5-.4.9-.9.9s-.9-.4-.9-.9.4-.9.9-.9.9.4.9.9Z"/>
    </g>
  </g>
</svg>