<?xml version="1.0" encoding="UTF-8"?>
<svg xmlns="http://www.w3.org/2000/svg" version="1.1" viewBox="0 0 20 20">
  <defs>
    <style>
      .cls-1 {
        fill: #fff;
      }

      .cls-2 {
        fill: #9a50bd;
      }
    </style>
  </defs>
  <!-- Generator: Adobe Illustrator 28.7.3, SVG Export Plug-In . SVG Version: 1.2.0 Build 164)  -->
  <g>
    <g id="Layer_1">
      <circle class="cls-2" cx="10" cy="10" r="10"/>
    </g>
    <g id="Layer_2">
      <path class="cls-1" d="M10,3.5c-2.4,0-4,1.7-4,3.7s.4,1.6,1,2.3l.2.3c.2.3.5.6.7.8.3.4.5.9.6,1.5,0,.4-.3.8-.7.8-.4,0-.7-.2-.8-.6,0-.3-.2-.5-.4-.8-.2-.2-.3-.5-.5-.7,0-.1-.2-.2-.3-.3-.6-.8-1.3-1.7-1.3-3.3,0-2.9,2.4-5.2,5.5-5.2s5.5,2.3,5.5,5.2-.7,2.5-1.3,3.3c0,.1-.2.2-.3.3-.2.2-.4.5-.5.7-.2.3-.3.6-.4.8,0,.4-.5.7-.9.6-.4,0-.6-.4-.6-.8,0-.6.3-1.1.6-1.5.2-.3.4-.6.7-.8,0,0,.1-.2.2-.3.6-.7,1-1.3,1-2.3,0-2.1-1.6-3.7-4-3.7ZM7.7,14h4.5c.4,0,.8.3.8.8s-.3.8-.8.8h-4.5c-.4,0-.7-.3-.7-.8s.3-.8.7-.8ZM8,17.2c0-.4.3-.8.8-.8h2.5c.4,0,.8.3.8.8s-.3.8-.8.8h-2.5c-.4,0-.8-.3-.8-.8Z"/>
    </g>
  </g>
</svg>