<?xml version="1.0" encoding="UTF-8"?>
<svg xmlns="http://www.w3.org/2000/svg" version="1.1" viewBox="0 0 16 16">
  <defs>
    <style>
      .cls-1 {
        fill: #595959;
      }
    </style>
  </defs>
  <!-- Generator: Adobe Illustrator 28.7.3, SVG Export Plug-In . SVG Version: 1.2.0 Build 164)  -->
  <g>
    <g id="Layer_1">
      <path class="cls-1" d="M.8,2.7C.8,1.4,1.8.3,3.2.3h8.5c.4,0,.7.3.7.7v3.4c0,.4-.3.7-.7.7s-.7-.3-.7-.7V1.7H3.2c-.5,0-1,.4-1,1v6.5c.3-.1.6-.2,1-.2h2.7c.4,0,.7.3.7.7s-.3.7-.7.7h-2.7c-.5,0-1,.4-1,1s.4,1,1,1h2.7c.4,0,.7.3.7.7s-.3.7-.7.7h-2.7c-1.3,0-2.4-1.1-2.4-2.4V2.7Z"/>
      <path class="cls-1" d="M8.5,10.1v-1.1c0-1.6,1.3-2.9,2.9-2.9s2.9,1.3,2.9,2.9v1.1c.6.3,1,.9,1,1.5v2.4c0,.9-.8,1.7-1.7,1.7h-4.3c-.9,0-1.7-.8-1.7-1.7v-2.4c0-.7.4-1.3,1-1.5ZM12.8,9.9v-1c0-.8-.6-1.4-1.4-1.4s-1.4.6-1.4,1.4v1h2.9Z"/>
    </g>
  </g>
</svg>